
<svg xmlns="http://www.w3.org/2000/svg" xml:space="preserve" width="99.6841mm" height="99.6841mm" version="1.1" style="shape-rendering:geometricPrecision; text-rendering:geometricPrecision; image-rendering:optimizeQuality; fill-rule:evenodd; clip-rule:evenodd"
viewBox="0 0 12327 12327"
 xmlns:xlink="http://www.w3.org/1999/xlink">

 <g id="Слой_x0020_1">
  <metadata id="CorelCorpID_0Corel-Layer"/>
  <path class="fil0" d="M6163 4095l-2975 2453c0,3 0,9 -2,15 -2,8 -3,13 -3,16l0 2483c0,89 32,167 99,233 66,65 142,99 233,99l1987 0 0 -1987 1324 0 0 1987 1987 0c89,0 167,-34 233,-99 65,-66 97,-144 97,-233l0 -2483c0,-14 -1,-24 -5,-31l-2975 -2453 0 0z"/>
  <path class="fil0" d="M10275 5990l-1132 -943 0 -2110c0,-49 -15,-88 -47,-119 -31,-31 -71,-47 -119,-47l-993 0c-48,0 -88,16 -119,47 -31,31 -47,70 -47,119l0 1009 -1262 -1056c-110,-89 -241,-135 -393,-135 -152,0 -283,46 -394,135l-3719 3100c-35,27 -54,64 -57,110 -4,47 9,87 36,122l320 382c29,32 65,51 109,58 42,3 83,-8 125,-37l3580 -2985 3581 2985c27,25 63,37 107,37l16 0c45,-7 81,-26 109,-58l320 -382c29,-35 41,-75 38,-122 -4,-46 -24,-83 -59,-110l0 0z"/>
  <path class="fil1 str0" d="M12196 6163c0,-3332 -2701,-6032 -6033,-6032 -3332,0 -6032,2700 -6032,6032 0,3332 2700,6033 6032,6033 3332,0 6033,-2701 6033,-6033z"/>
 </g>
</svg>
