<svg class="portfolio-menu__link-img-svg" version="1.1"
     viewBox="0.5 24.5 24 24"  xml:space="preserve"><g><circle cx="11.563" cy="36.5" r="3"></circle><path
        d="M21.934,38.57c-0.508-0.205-1.095,0.044-1.3,0.559l-1.516,3.788L16.162,40.7c-0.173-0.13-0.383-0.2-0.6-0.2h-8   c-0.216,0-0.427,0.07-0.6,0.2l-2.956,2.217l-1.515-3.788c-0.205-0.514-0.784-0.763-1.3-0.559c-0.513,0.205-0.762,0.787-0.557,1.301   l2,5c0.116,0.289,0.359,0.508,0.659,0.592c0.299,0.082,0.621,0.023,0.87-0.163l3.4-2.55v5.75h8v-5.75l3.4,2.55   c0.176,0.132,0.387,0.2,0.6,0.2c0.09,0,0.182-0.014,0.271-0.037c0.3-0.084,0.543-0.303,0.659-0.592l2-5   C22.695,39.357,22.445,38.775,21.934,38.57z"></path><path
        d="M12.5,30.5c1.657,0,3-1.343,3-3s-1.343-3-3-3s-3,1.343-3,3S10.843,30.5,12.5,30.5z M12.5,25.5c1.103,0,2,0.897,2,2   s-0.897,2-2,2c-1.103,0-2-0.897-2-2S11.397,25.5,12.5,25.5z"></path><path
        d="M20.5,27.5l-4,7h8L20.5,27.5z M20.5,29.516l2.276,3.984h-4.553L20.5,29.516z"></path><path
        d="M8.5,32.5l-4-4l-4,4l4,4L8.5,32.5z M4.5,29.914L7.086,32.5L4.5,35.086L1.914,32.5L4.5,29.914z"></path></g></svg>