<svg width="46" height="46" viewBox="0 0 46 46" fill="none" xmlns="http://www.w3.org/2000/svg">
<path d="M24.8191 29.4295L19.5082 24.1813L19.5709 24.1186C23.2091 20.0622 25.8018 15.3995 27.3282 10.4649H33.4546V6.27267H18.8182V2.09082H14.6363V6.27267H0V10.4336H23.3554C21.9441 14.469 19.7381 18.2953 16.7272 21.6409C14.7827 19.4768 13.1726 17.1245 11.8972 14.6363H7.71546C9.24179 18.0444 11.3328 21.2645 13.9463 24.1708L3.31406 34.6777L6.27273 37.6363L16.7273 27.1817L23.2301 33.6845L24.8191 29.4295Z" fill="url(#paint0_linear)"/>
<path d="M36.591 18.8181H32.4091L23 43.909H27.1819L29.5341 37.6363H39.4659L41.8182 43.909H46.0001L36.591 18.8181ZM31.1023 33.4545L34.5001 24.3904L37.8978 33.4545H31.1023Z" fill="url(#paint1_linear)"/>
<defs>
<linearGradient id="paint0_linear" x1="31.065" y1="5.89927" x2="3.4312" y2="28.361" gradientUnits="userSpaceOnUse">
<stop stop-color="#EECE83"/>
<stop offset="0.203125" stop-color="#C8A237"/>
<stop offset="0.40625" stop-color="#FFDE87"/>
<stop offset="0.59375" stop-color="#E8C970"/>
<stop offset="0.802083" stop-color="#D7AE44"/>
<stop offset="1" stop-color="#A26A0D"/>
</linearGradient>
<linearGradient id="paint1_linear" x1="44.3572" y1="21.5064" x2="24.9623" y2="36.8607" gradientUnits="userSpaceOnUse">
<stop stop-color="#EECE83"/>
<stop offset="0.203125" stop-color="#C8A237"/>
<stop offset="0.40625" stop-color="#FFDE87"/>
<stop offset="0.59375" stop-color="#E8C970"/>
<stop offset="0.802083" stop-color="#D7AE44"/>
<stop offset="1" stop-color="#A26A0D"/>
</linearGradient>
</defs>
</svg>
