<svg width="213" height="47" viewBox="0 0 213 47" fill="none" xmlns="http://www.w3.org/2000/svg">
<path d="M26 37.5799V35.4876L21.0212 32.0093V19.8076H19.3144V30.8167L17.4368 29.5046V9.63788H15.731V28.3121L13.8534 27.0011V0H12.1466V27.0011L10.2742 28.3121V9.63788H8.56218V29.5046L6.68556 30.8167V19.8076H4.97879V32.0093L0 35.4876V37.5757L4.97565 34.0994V36.7151L0 40.1977V42.29L4.97565 38.8148V41.4315L0 44.9077V46.9968L13 37.9161L26 46.9968V44.9077L21.0223 41.4304V38.8137L26 42.29V40.1977L21.0212 36.7193V34.1037L26 37.5799ZM12.1508 29.0944V31.7111L10.2742 33.0232V30.4065L12.1508 29.0944ZM12.1508 33.8055V36.4212L10.2742 37.7332V35.1165L12.1508 33.8055ZM13.8576 33.8055L15.7342 35.1165V37.7332L13.8576 36.4212V33.8055ZM13.8576 31.7111V29.0944L15.7258 30.4065V33.0232L13.8576 31.7111ZM6.68556 32.9111L8.56218 31.5991V34.2157L6.68556 35.5236V32.9111ZM6.68556 37.6211L8.56218 36.3091V38.9258L6.68556 40.2378V37.6211ZM19.3144 40.2378L17.4368 38.9258V36.3091L19.3144 37.6211V40.2378ZM19.3144 35.5267L17.4368 34.2157V31.5991L19.3144 32.9111V35.5267Z" fill="url(#paint0_linear)"/>
<g style="mix-blend-mode:multiply" opacity="0.35">
<path d="M13.0337 28.5224L13.0001 28.498L12.9655 28.5224L12.1467 29.0943V30.2118L13.0001 29.6166L13.8535 30.2118V29.0943L13.0337 28.5224Z" fill="#BF7526"/>
</g>
<g style="mix-blend-mode:multiply" opacity="0.35">
<path d="M8.56226 31.5988V32.7185L10.269 31.5248V30.4062L8.56226 31.5988Z" fill="#BF7526"/>
</g>
<g style="mix-blend-mode:multiply" opacity="0.35">
<path d="M4.97876 34.1037V35.2223L6.68553 34.0297V32.9111L4.97876 34.1037Z" fill="#BF7526"/>
</g>
<g style="mix-blend-mode:multiply" opacity="0.35">
<path d="M19.3145 32.9111V34.0297L21.0212 35.2223V34.1037L19.3145 32.9111Z" fill="#BF7526"/>
</g>
<g style="mix-blend-mode:multiply" opacity="0.35">
<path d="M15.73 30.4062V31.5248L17.4368 32.7185V31.5988L15.73 30.4062Z" fill="#BF7526"/>
</g>
<g style="mix-blend-mode:multiply" opacity="0.35">
<path d="M4.97876 38.8136V39.9311L6.68553 38.7406V37.6221L4.97876 38.8136Z" fill="#BF7526"/>
</g>
<g style="mix-blend-mode:multiply" opacity="0.35">
<path d="M8.56226 36.3092V37.4267L10.269 36.2362V35.1177L8.56226 36.3092Z" fill="#BF7526"/>
</g>
<g style="mix-blend-mode:multiply" opacity="0.35">
<path d="M15.73 35.1177V36.2362L17.4368 37.4267V36.3092L15.73 35.1177Z" fill="#BF7526"/>
</g>
<g style="mix-blend-mode:multiply" opacity="0.35">
<path d="M19.3145 37.6221V38.7406L21.0212 39.9311V38.8136L19.3145 37.6221Z" fill="#BF7526"/>
</g>
<g style="mix-blend-mode:multiply" opacity="0.35">
<path d="M13.0337 33.2327L13.0001 33.2095L12.9655 33.2327L12.1467 33.8058V34.9233L13.0001 34.328L13.8535 34.9233V33.8058L13.0337 33.2327Z" fill="#BF7526"/>
</g>
<path d="M46.8601 26.3002C44.7534 26.3002 43.0067 25.6069 41.6201 24.2202C40.2467 22.8202 39.5601 21.0802 39.5601 19.0002C39.5601 16.9202 40.2467 15.1869 41.6201 13.8002C43.0067 12.4002 44.7534 11.7002 46.8601 11.7002C48.1267 11.7002 49.3001 12.0002 50.3801 12.6002C51.4601 13.2002 52.3067 14.0069 52.9201 15.0202L49.8201 16.8002C49.5534 16.3069 49.1534 15.9202 48.6201 15.6402C48.1001 15.3469 47.5134 15.2002 46.8601 15.2002C45.7401 15.2002 44.8334 15.5535 44.1401 16.2602C43.4601 16.9535 43.1201 17.8669 43.1201 19.0002C43.1201 20.1335 43.4601 21.0535 44.1401 21.7602C44.8334 22.4535 45.7401 22.8002 46.8601 22.8002C47.5134 22.8002 48.1001 22.6602 48.6201 22.3802C49.1534 22.0869 49.5534 21.6869 49.8201 21.1802L52.9201 22.9802C52.3067 24.0069 51.4601 24.8202 50.3801 25.4202C49.3134 26.0069 48.1401 26.3002 46.8601 26.3002Z" fill="white"/>
<path d="M67.1216 12.0002H70.6816V26.0002H67.1216V20.6202H63.1816V26.0002H59.6016V12.0002H63.1816V17.1802H67.1216V12.0002Z" fill="white"/>
<path d="M81.8824 22.6402H87.3024V26.0002H78.3024V12.0002H87.2024V15.3402H81.8824V17.2802H86.7024V20.5802H81.8824V22.6402Z" fill="white"/>
<path d="M106.006 26.0002H102.006L97.9855 19.7402V26.0002H94.4055V12.0002H97.9855V17.8802L101.806 12.0002H105.806L101.366 18.8002L106.006 26.0002Z" fill="white"/>
<path d="M121.471 26.0002L120.871 23.9802H116.211L115.611 26.0002H111.731L116.351 12.0002H120.711L125.331 26.0002H121.471ZM117.131 20.9002H119.951L118.531 16.1402L117.131 20.9002Z" fill="white"/>
<path d="M136.436 26.3002C134.956 26.3002 133.729 25.9869 132.756 25.3602C131.782 24.7335 131.102 23.8869 130.716 22.8202L133.776 21.0402C134.296 22.2802 135.216 22.9002 136.536 22.9002C137.629 22.9002 138.176 22.5869 138.176 21.9602C138.176 21.5469 137.862 21.2135 137.236 20.9602C136.969 20.8535 136.382 20.6735 135.476 20.4202C134.196 20.0469 133.182 19.5269 132.436 18.8602C131.689 18.1802 131.316 17.2402 131.316 16.0402C131.316 14.7469 131.776 13.7002 132.696 12.9002C133.629 12.1002 134.789 11.7002 136.176 11.7002C137.349 11.7002 138.389 11.9735 139.296 12.5202C140.202 13.0669 140.896 13.8602 141.376 14.9002L138.376 16.6602C137.936 15.6202 137.209 15.1002 136.196 15.1002C135.769 15.1002 135.442 15.1869 135.216 15.3602C135.002 15.5335 134.896 15.7535 134.896 16.0202C134.896 16.3269 135.056 16.5869 135.376 16.8002C135.709 17.0135 136.349 17.2602 137.296 17.5402C137.976 17.7402 138.522 17.9269 138.936 18.1002C139.349 18.2735 139.802 18.5269 140.296 18.8602C140.789 19.1802 141.156 19.6002 141.396 20.1202C141.636 20.6269 141.756 21.2269 141.756 21.9202C141.756 23.2935 141.269 24.3669 140.296 25.1402C139.322 25.9135 138.036 26.3002 136.436 26.3002Z" fill="white"/>
<path d="M155.977 12.0002H159.537V26.0002H155.977V20.6202H152.037V26.0002H148.457V12.0002H152.037V17.1802H155.977V12.0002Z" fill="white"/>
<path d="M179.158 24.2002C177.745 25.6002 176.011 26.3002 173.958 26.3002C171.905 26.3002 170.165 25.6002 168.738 24.2002C167.325 22.7869 166.618 21.0535 166.618 19.0002C166.618 16.9469 167.325 15.2202 168.738 13.8202C170.165 12.4069 171.905 11.7002 173.958 11.7002C176.011 11.7002 177.745 12.4069 179.158 13.8202C180.585 15.2202 181.298 16.9469 181.298 19.0002C181.298 21.0535 180.585 22.7869 179.158 24.2002ZM171.258 21.7402C171.978 22.4469 172.878 22.8002 173.958 22.8002C175.038 22.8002 175.938 22.4469 176.658 21.7402C177.378 21.0202 177.738 20.1069 177.738 19.0002C177.738 17.8935 177.378 16.9869 176.658 16.2802C175.938 15.5602 175.038 15.2002 173.958 15.2002C172.878 15.2002 171.978 15.5602 171.258 16.2802C170.538 16.9869 170.178 17.8935 170.178 19.0002C170.178 20.1069 170.538 21.0202 171.258 21.7402Z" fill="white"/>
<path d="M196.959 15.4602H191.939V17.7402H196.859V21.2002H191.939V26.0002H188.359V12.0002H196.959V15.4602Z" fill="white"/>
<path d="M212.71 15.4602H207.69V17.7402H212.61V21.2002H207.69V26.0002H204.11V12.0002H212.71V15.4602Z" fill="white"/>
<path d="M40.3441 38.2959H42.9441V38.9999H39.6001V33.3999H42.9041V34.1039H40.3441V35.8239H42.7041V36.5199H40.3441V38.2959Z" fill="white"/>
<path d="M47.8103 39.1039C47.2876 39.1039 46.8396 38.9812 46.4663 38.7359C46.0983 38.4906 45.8396 38.1546 45.6903 37.7279L46.3303 37.3599C46.549 38.0372 47.0476 38.3759 47.8263 38.3759C48.2103 38.3759 48.5036 38.2986 48.7063 38.1439C48.909 37.9839 49.0103 37.7732 49.0103 37.5119C49.0103 37.2452 48.909 37.0452 48.7063 36.9119C48.5036 36.7786 48.165 36.6372 47.6903 36.4879C47.4556 36.4132 47.277 36.3546 47.1543 36.3119C47.0316 36.2639 46.877 36.1946 46.6903 36.1039C46.509 36.0079 46.373 35.9119 46.2823 35.8159C46.1916 35.7146 46.109 35.5839 46.0343 35.4239C45.965 35.2639 45.9303 35.0826 45.9303 34.8799C45.9303 34.3946 46.101 34.0106 46.4423 33.7279C46.7836 33.4399 47.1996 33.2959 47.6903 33.2959C48.133 33.2959 48.517 33.4079 48.8423 33.6319C49.173 33.8559 49.421 34.1519 49.5863 34.5199L48.9623 34.8799C48.7223 34.3039 48.2983 34.0159 47.6903 34.0159C47.3863 34.0159 47.141 34.0906 46.9543 34.2399C46.7676 34.3892 46.6743 34.5919 46.6743 34.8479C46.6743 35.0932 46.7623 35.2799 46.9383 35.4079C47.1143 35.5359 47.4183 35.6692 47.8503 35.8079C48.005 35.8559 48.1143 35.8906 48.1783 35.9119C48.2423 35.9332 48.341 35.9706 48.4743 36.0239C48.613 36.0772 48.7143 36.1199 48.7783 36.1519C48.8423 36.1839 48.9276 36.2292 49.0343 36.2879C49.1463 36.3466 49.229 36.4026 49.2823 36.4559C49.3356 36.5092 49.397 36.5759 49.4663 36.6559C49.541 36.7306 49.5943 36.8079 49.6263 36.8879C49.6583 36.9679 49.685 37.0612 49.7063 37.1679C49.733 37.2692 49.7463 37.3786 49.7463 37.4959C49.7463 37.9866 49.5676 38.3786 49.2103 38.6719C48.853 38.9599 48.3863 39.1039 47.8103 39.1039Z" fill="white"/>
<path d="M56.1682 33.3999V34.1039H54.5122V38.9999H53.7762V34.1039H52.1282V33.3999H56.1682Z" fill="white"/>
<path d="M62.3462 38.9999L61.8902 37.7439H59.3702L58.9142 38.9999H58.1222L60.2102 33.3999H61.0502L63.1382 38.9999H62.3462ZM59.6262 37.0479H61.6342L60.6262 34.2879L59.6262 37.0479Z" fill="white"/>
<path d="M69.1366 33.3999V34.1039H67.4806V38.9999H66.7446V34.1039H65.0966V33.3999H69.1366Z" fill="white"/>
<path d="M72.7769 38.2959H75.3769V38.9999H72.0329V33.3999H75.3369V34.1039H72.7769V35.8239H75.1369V36.5199H72.7769V38.2959Z" fill="white"/>
<defs>
<linearGradient id="paint0_linear" x1="13" y1="-0.626666" x2="13" y2="47" gradientUnits="userSpaceOnUse">
<stop stop-color="#EECE83"/>
<stop offset="0.307292" stop-color="#FFDE87"/>
<stop offset="0.5625" stop-color="#E8C970"/>
<stop offset="0.78125" stop-color="#D7AE44"/>
<stop offset="1" stop-color="#A26A0D"/>
</linearGradient>
</defs>
</svg>
