<svg width="46" height="46" viewBox="0 0 46 46" fill="none" xmlns="http://www.w3.org/2000/svg">
<g clip-path="url(#clip0)">
<path d="M44.651 9.33061H28.9854C28.8196 8.94473 28.5806 8.58319 28.2659 8.26856L25.79 5.79265C25.1461 5.14865 24.2898 4.79395 23.379 4.79395C22.4682 4.79395 21.612 5.14865 20.9679 5.79256L18.492 8.26847C18.1775 8.58302 17.9382 8.94464 17.7725 9.33052H1.349C0.60402 9.33052 0 9.93453 0 10.6795C0 11.4245 0.60402 12.0286 1.349 12.0286H17.7726C17.9384 12.4145 18.1775 12.776 18.4921 13.0907L20.968 15.5666C21.612 16.2106 22.4683 16.5652 23.3791 16.5652C24.2899 16.5652 25.1461 16.2105 25.7901 15.5666L28.266 13.0907C28.5806 12.7761 28.8198 12.4145 28.9855 12.0286H44.6511C45.3961 12.0286 46.0001 11.4246 46.0001 10.6796C46.0001 9.93462 45.396 9.33061 44.651 9.33061Z" fill="url(#paint0_linear)"/>
<path d="M44.651 21.8311H18.337C18.1683 21.4396 17.9259 21.0795 17.6154 20.769L15.1396 18.2931C14.4956 17.6491 13.6393 17.2945 12.7285 17.2945C11.8177 17.2945 10.9615 17.6492 10.3175 18.2931L7.84156 20.769C7.52702 21.0836 7.28777 21.4452 7.12209 21.8311H1.349C0.60402 21.8311 0 22.4351 0 23.1801C0 23.9251 0.60402 24.5291 1.349 24.5291H7.12218C7.28795 24.915 7.52702 25.2765 7.84165 25.5911L10.3176 28.067C10.9615 28.711 11.8178 29.0657 12.7286 29.0657C13.6394 29.0657 14.4956 28.711 15.1397 28.067L17.6155 25.5912C17.9259 25.2808 18.1685 24.9206 18.3371 24.5292H44.6511C45.3961 24.5292 46.0001 23.9251 46.0001 23.1802C46 22.4352 45.396 21.8311 44.651 21.8311Z" fill="url(#paint1_linear)"/>
<path d="M44.651 33.9717H37.9785C37.8127 33.5858 37.5736 33.2243 37.259 32.9097L34.7831 30.4338C34.1392 29.7898 33.2829 29.4351 32.3721 29.4351C31.4613 29.4351 30.6051 29.7898 29.961 30.4337L27.4851 32.9096C27.1705 33.2241 26.9313 33.5857 26.7656 33.9716H1.34882C0.60402 33.9716 0 34.5756 0 35.3205C0 36.0655 0.60402 36.6695 1.349 36.6695H26.7658C26.9316 37.0554 27.1706 37.417 27.4853 37.7316L29.9612 40.2075C30.6052 40.8515 31.4615 41.2061 32.3722 41.2061C33.2831 41.2061 34.1393 40.8514 34.7833 40.2075L37.2592 37.7316C37.5737 37.417 37.813 37.0554 37.9787 36.6695H44.6512C45.3962 36.6695 46.0002 36.0655 46.0002 35.3205C46 34.5756 45.396 33.9717 44.651 33.9717Z" fill="url(#paint2_linear)"/>
</g>
<defs>
<linearGradient id="paint0_linear" x1="42.7144" y1="6.05515" x2="37.6216" y2="23.243" gradientUnits="userSpaceOnUse">
<stop stop-color="#EECE83"/>
<stop offset="0.203125" stop-color="#C8A237"/>
<stop offset="0.40625" stop-color="#FFDE87"/>
<stop offset="0.59375" stop-color="#E8C970"/>
<stop offset="0.802083" stop-color="#D7AE44"/>
<stop offset="1" stop-color="#A26A0D"/>
</linearGradient>
<linearGradient id="paint1_linear" x1="42.7144" y1="18.5557" x2="37.6216" y2="35.7435" gradientUnits="userSpaceOnUse">
<stop stop-color="#EECE83"/>
<stop offset="0.203125" stop-color="#C8A237"/>
<stop offset="0.40625" stop-color="#FFDE87"/>
<stop offset="0.59375" stop-color="#E8C970"/>
<stop offset="0.802083" stop-color="#D7AE44"/>
<stop offset="1" stop-color="#A26A0D"/>
</linearGradient>
<linearGradient id="paint2_linear" x1="42.7145" y1="30.6962" x2="37.6218" y2="47.8838" gradientUnits="userSpaceOnUse">
<stop stop-color="#EECE83"/>
<stop offset="0.203125" stop-color="#C8A237"/>
<stop offset="0.40625" stop-color="#FFDE87"/>
<stop offset="0.59375" stop-color="#E8C970"/>
<stop offset="0.802083" stop-color="#D7AE44"/>
<stop offset="1" stop-color="#A26A0D"/>
</linearGradient>
<clipPath id="clip0">
<rect width="46" height="46" fill="white"/>
</clipPath>
</defs>
</svg>
