<svg width="46" height="42" viewBox="0 0 46 42" fill="none" xmlns="http://www.w3.org/2000/svg">
<path d="M41.5484 0.550293H4.45161C1.99692 0.550293 0 2.54721 0 5.00191V27.26C0 29.7147 1.99692 31.7116 4.45161 31.7116H17.8065C18.626 31.7116 19.2903 31.0473 19.2903 30.2277C19.2903 29.4081 18.626 28.7438 17.8065 28.7438H11.7645C11.1119 24.2016 7.50987 20.5997 2.96774 19.9471V12.3148C7.50996 11.6622 11.1119 8.06026 11.7645 3.51803H34.2354C34.888 8.06026 38.49 11.6622 43.0322 12.3148V19.9471C38.4899 20.5997 34.888 24.2016 34.2354 28.7438H28.1935C27.374 28.7438 26.7097 29.4081 26.7097 30.2277C26.7097 31.0473 27.374 31.7116 28.1935 31.7116H41.5484C44.0031 31.7116 46 29.7147 46 27.26V5.00191C46 2.54721 44.0031 0.550293 41.5484 0.550293ZM8.75391 28.7438H4.45161C3.63344 28.7438 2.96774 28.0781 2.96774 27.26V22.9577C5.87056 23.5493 8.16231 25.841 8.75391 28.7438ZM2.96774 9.3042V5.00191C2.96774 4.18374 3.63344 3.51803 4.45161 3.51803H8.75391C8.16231 6.42086 5.87056 8.7126 2.96774 9.3042ZM37.2461 3.51803H41.5484C42.3666 3.51803 43.0323 4.18374 43.0323 5.00191V9.3042C40.1294 8.7126 37.8377 6.42086 37.2461 3.51803ZM41.5484 28.7438H37.2461C37.8377 25.841 40.1294 23.5493 43.0323 22.9577V27.26C43.0323 28.0781 42.3666 28.7438 41.5484 28.7438ZM31.1613 16.1309C31.1613 11.6308 27.5001 7.96965 23 7.96965C18.4999 7.96965 14.8387 11.6308 14.8387 16.1309C14.8387 20.6311 18.4999 24.2922 23 24.2922C27.5001 24.2922 31.1613 20.6311 31.1613 16.1309ZM17.8065 16.1309C17.8065 13.2672 20.1362 10.9374 23 10.9374C25.8638 10.9374 28.1935 13.2672 28.1935 16.1309C28.1935 18.9947 25.8638 21.3245 23 21.3245C20.1362 21.3245 17.8065 18.9947 17.8065 16.1309ZM11.129 14.6471C11.9486 14.6471 12.6129 15.3114 12.6129 16.1309C12.6129 16.9505 11.9486 17.6148 11.129 17.6148H10.3871C9.56754 17.6148 8.90323 16.9505 8.90323 16.1309C8.90323 15.3114 9.56754 14.6471 10.3871 14.6471H11.129ZM34.871 17.6148C34.0514 17.6148 33.3871 16.9505 33.3871 16.1309C33.3871 15.3114 34.0514 14.6471 34.871 14.6471H35.6129C36.4325 14.6471 37.0968 15.3114 37.0968 16.1309C37.0968 16.9505 36.4325 17.6148 35.6129 17.6148H34.871ZM27.1097 35.8559C27.6892 36.4354 27.6892 37.375 27.1097 37.9544L24.0492 41.0149C23.4696 41.5944 22.5302 41.5943 21.9507 41.0149L18.8902 37.9544C18.3107 37.375 18.3107 36.4354 18.8902 35.8559C19.4697 35.2765 20.4093 35.2765 20.9887 35.8559L21.5161 36.3834V29.3003C21.5161 28.4807 22.1804 27.8164 23 27.8164C23.8196 27.8164 24.4839 28.4807 24.4839 29.3003V36.3833L25.0113 35.8558C25.5907 35.2764 26.5302 35.2764 27.1097 35.8559Z" fill="url(#paint0_linear)"/>
<defs>
<linearGradient id="paint0_linear" x1="42.7143" y1="4.93235" x2="10.247" y2="36.4693" gradientUnits="userSpaceOnUse">
<stop stop-color="#EECE83"/>
<stop offset="0.203125" stop-color="#C8A237"/>
<stop offset="0.40625" stop-color="#FFDE87"/>
<stop offset="0.59375" stop-color="#E8C970"/>
<stop offset="0.802083" stop-color="#D7AE44"/>
<stop offset="1" stop-color="#A26A0D"/>
</linearGradient>
</defs>
</svg>
