<?xml version="1.0" encoding="utf-8"?><svg viewBox="0 0 213 47" xmlns="http://www.w3.org/2000/svg" xmlns:xlink="http://www.w3.org/1999/xlink"><style>:root>svg{display:none}:root>svg:target{display:block}</style><svg fill="none" viewBox="0 0 213 47" id="css--logo" xmlns="http://www.w3.org/2000/svg"><path d="M26 37.58v-2.092l-4.979-3.479V19.808h-1.707v11.009l-1.877-1.312V9.638H15.73v18.674l-1.878-1.31V0h-1.706v27.001l-1.873 1.311V9.638H8.562v19.867l-1.876 1.312v-11.01H4.979V32.01L0 35.488v2.088l4.976-3.477v2.616L0 40.198v2.092l4.976-3.475v2.617L0 44.907v2.089l13-9.08 13 9.08v-2.09l-4.978-3.477v-2.616L26 42.29v-2.092l-4.979-3.479v-2.615L26 37.58zm-13.85-8.486v2.617l-1.876 1.312v-2.617l1.877-1.312zm0 4.712v2.615l-1.876 1.312v-2.616l1.877-1.311zm1.708 0l1.876 1.31v2.617l-1.876-1.312v-2.615zm0-2.095v-2.617l1.868 1.313v2.616l-1.868-1.312zm-7.172 1.2L8.562 31.6v2.617l-1.876 1.308V32.91zm0 4.71l1.876-1.312v2.617l-1.876 1.312V37.62zm12.628 2.617l-1.877-1.312v-2.617l1.877 1.312v2.617zm0-4.711l-1.877-1.311v-2.617l1.877 1.312v2.616z" fill="url(#apaint0_linear)"/><path d="M13.034 28.522L13 28.498l-.034.024-.82.572v1.118l.854-.595.854.595v-1.118l-.82-.572zm-4.472 3.077v1.12l1.707-1.194v-1.119L8.562 31.6zm-3.583 2.505v1.118l1.707-1.192v-1.12l-1.707 1.193zm14.335-1.193v1.119l1.707 1.192v-1.118l-1.707-1.193zm-3.584-2.505v1.119l1.707 1.194v-1.12l-1.707-1.193zM4.979 38.814v1.117l1.707-1.19v-1.119l-1.707 1.192zm3.583-2.504v1.117l1.707-1.19v-1.12L8.562 36.31zm7.168-1.192v1.118l1.707 1.19V36.31l-1.707-1.191zm3.584 2.504v1.119l1.707 1.19v-1.117l-1.707-1.192zm-6.28-4.389L13 33.21l-.034.023-.82.573v1.117l.854-.595.854.595v-1.117l-.82-.573z" fill="#BF7526" opacity=".35"/><path d="M46.86 26.3c-2.107 0-3.853-.693-5.24-2.08-1.373-1.4-2.06-3.14-2.06-5.22 0-2.08.687-3.813 2.06-5.2 1.387-1.4 3.133-2.1 5.24-2.1 1.267 0 2.44.3 3.52.9 1.08.6 1.927 1.407 2.54 2.42l-3.1 1.78a2.804 2.804 0 00-1.2-1.16 3.52 3.52 0 00-1.76-.44c-1.12 0-2.027.354-2.72 1.06-.68.693-1.02 1.607-1.02 2.74 0 1.134.34 2.053 1.02 2.76.693.693 1.6 1.04 2.72 1.04.653 0 1.24-.14 1.76-.42a2.891 2.891 0 001.2-1.2l3.1 1.8a6.671 6.671 0 01-2.54 2.44c-1.067.587-2.24.88-3.52.88zM67.122 12h3.56v14h-3.56v-5.38h-3.94V26h-3.58V12h3.58v5.18h3.94V12zm14.76 10.64h5.42V26h-9V12h8.9v3.34h-5.32v1.94h4.82v3.3h-4.82v2.06zM106.006 26h-4l-4.02-6.26V26h-3.58V12h3.58v5.88l3.82-5.88h4l-4.44 6.8 4.64 7.2zm15.465 0l-.6-2.02h-4.66l-.6 2.02h-3.88l4.62-14h4.36l4.62 14h-3.86zm-4.34-5.1h2.82l-1.42-4.76-1.4 4.76zm19.305 5.4c-1.48 0-2.707-.313-3.68-.94-.974-.627-1.654-1.473-2.04-2.54l3.06-1.78c.52 1.24 1.44 1.86 2.76 1.86 1.093 0 1.64-.313 1.64-.94 0-.413-.314-.747-.94-1-.267-.107-.854-.287-1.76-.54-1.28-.373-2.294-.893-3.04-1.56-.747-.68-1.12-1.62-1.12-2.82 0-1.293.46-2.34 1.38-3.14.933-.8 2.093-1.2 3.48-1.2 1.173 0 2.213.274 3.12.82.906.547 1.6 1.34 2.08 2.38l-3 1.76c-.44-1.04-1.167-1.56-2.18-1.56-.427 0-.754.087-.98.26a.812.812 0 00-.32.66c0 .307.16.567.48.78.333.213.973.46 1.92.74.68.2 1.226.387 1.64.56.413.173.866.427 1.36.76.493.32.86.74 1.1 1.26.24.507.36 1.107.36 1.8 0 1.373-.487 2.447-1.46 3.22-.974.773-2.26 1.16-3.86 1.16zM155.977 12h3.56v14h-3.56v-5.38h-3.94V26h-3.58V12h3.58v5.18h3.94V12zm23.181 12.2c-1.413 1.4-3.147 2.1-5.2 2.1-2.053 0-3.793-.7-5.22-2.1-1.413-1.413-2.12-3.146-2.12-5.2 0-2.053.707-3.78 2.12-5.18 1.427-1.413 3.167-2.12 5.22-2.12s3.787.707 5.2 2.12c1.427 1.4 2.14 3.127 2.14 5.18s-.713 3.787-2.14 5.2zm-7.9-2.46c.72.707 1.62 1.06 2.7 1.06s1.98-.353 2.7-1.06c.72-.72 1.08-1.633 1.08-2.74 0-1.107-.36-2.013-1.08-2.72-.72-.72-1.62-1.08-2.7-1.08s-1.98.36-2.7 1.08c-.72.707-1.08 1.613-1.08 2.72 0 1.107.36 2.02 1.08 2.74zm25.701-6.28h-5.02v2.28h4.92v3.46h-4.92V26h-3.58V12h8.6v3.46zm15.751 0h-5.02v2.28h4.92v3.46h-4.92V26h-3.58V12h8.6v3.46zM40.344 38.296h2.6V39H39.6v-5.6h3.304v.704h-2.56v1.72h2.36v.696h-2.36v1.776zm7.466.808c-.522 0-.97-.123-1.344-.368a1.953 1.953 0 01-.776-1.008l.64-.368c.219.677.718 1.016 1.496 1.016.384 0 .678-.077.88-.232a.766.766 0 00.304-.632c0-.267-.101-.467-.304-.6-.202-.133-.541-.275-1.016-.424a22.82 22.82 0 01-.536-.176 6.66 6.66 0 01-.464-.208 1.582 1.582 0 01-.408-.288 1.599 1.599 0 01-.248-.392 1.356 1.356 0 01-.104-.544c0-.485.171-.87.512-1.152.342-.288.758-.432 1.248-.432.443 0 .827.112 1.152.336.331.224.579.52.744.888l-.624.36c-.24-.576-.664-.864-1.272-.864-.304 0-.549.075-.736.224a.737.737 0 00-.28.608c0 .245.088.432.264.56.176.128.48.261.912.4a5.978 5.978 0 01.624.216 3.607 3.607 0 01.56.264c.112.059.195.115.248.168.054.053.115.12.184.2a.699.699 0 01.16.232c.032.08.059.173.08.28.027.101.04.21.04.328 0 .49-.178.883-.536 1.176-.357.288-.824.432-1.4.432zm8.358-5.704v.704h-1.656V39h-.736v-4.896h-1.648V33.4h4.04zm6.178 5.6l-.456-1.256h-2.52L58.914 39h-.792l2.088-5.6h.84l2.088 5.6h-.792zm-2.72-1.952h2.008l-1.008-2.76-1 2.76zm9.511-3.648v.704H67.48V39h-.736v-4.896h-1.648V33.4h4.04zm3.64 4.896h2.6V39h-3.344v-5.6h3.304v.704h-2.56v1.72h2.36v.696h-2.36v1.776z" fill="#fff"/><defs><linearGradient id="apaint0_linear" x1="13" y1="-.627" x2="13" y2="47" gradientUnits="userSpaceOnUse"><stop stop-color="#EECE83"/><stop offset=".307" stop-color="#FFDE87"/><stop offset=".563" stop-color="#E8C970"/><stop offset=".781" stop-color="#D7AE44"/><stop offset="1" stop-color="#A26A0D"/></linearGradient></defs></svg><svg fill="none" viewBox="0 0 46 46" id="css--term-1" xmlns="http://www.w3.org/2000/svg"><g clip-path="url(#bclip0)"><path d="M44.651 9.33H28.985a3.39 3.39 0 00-.72-1.061L25.79 5.793a3.387 3.387 0 00-2.411-1 3.39 3.39 0 00-2.411 1l-2.476 2.475a3.391 3.391 0 00-.72 1.063H1.35a1.35 1.35 0 000 2.698h16.424c.165.386.404.747.72 1.062l2.475 2.476c.644.644 1.5.998 2.411.998.91 0 1.767-.355 2.411-.998l2.476-2.476a3.39 3.39 0 00.72-1.062H44.65a1.349 1.349 0 100-2.698z" fill="url(#bpaint0_linear)"/><path d="M44.651 21.831H18.337a3.406 3.406 0 00-.722-1.062l-2.475-2.476a3.387 3.387 0 00-2.412-.998c-.91 0-1.767.354-2.41.998L7.842 20.77a3.39 3.39 0 00-.72 1.062H1.35a1.35 1.35 0 000 2.698h5.773c.166.386.405.747.72 1.062l2.476 2.476c.643.644 1.5.999 2.41.999a3.39 3.39 0 002.412-.999l2.476-2.476c.31-.31.553-.67.721-1.062h26.314a1.35 1.35 0 000-2.698z" fill="url(#bpaint1_linear)"/><path d="M44.651 33.972h-6.673a3.391 3.391 0 00-.719-1.062l-2.476-2.476a3.387 3.387 0 00-2.41-.999c-.912 0-1.768.355-2.412.999l-2.476 2.476a3.388 3.388 0 00-.72 1.062H1.35a1.349 1.349 0 000 2.697h25.417c.166.386.405.748.72 1.063l2.475 2.476c.644.644 1.5.998 2.411.998s1.767-.355 2.411-.998l2.476-2.476c.315-.315.554-.677.72-1.063h6.672a1.349 1.349 0 100-2.697z" fill="url(#bpaint2_linear)"/></g><defs><linearGradient id="bpaint0_linear" x1="42.714" y1="6.055" x2="37.622" y2="23.243" gradientUnits="userSpaceOnUse"><stop stop-color="#EECE83"/><stop offset=".203" stop-color="#C8A237"/><stop offset=".406" stop-color="#FFDE87"/><stop offset=".594" stop-color="#E8C970"/><stop offset=".802" stop-color="#D7AE44"/><stop offset="1" stop-color="#A26A0D"/></linearGradient><linearGradient id="bpaint1_linear" x1="42.714" y1="18.556" x2="37.622" y2="35.743" gradientUnits="userSpaceOnUse"><stop stop-color="#EECE83"/><stop offset=".203" stop-color="#C8A237"/><stop offset=".406" stop-color="#FFDE87"/><stop offset=".594" stop-color="#E8C970"/><stop offset=".802" stop-color="#D7AE44"/><stop offset="1" stop-color="#A26A0D"/></linearGradient><linearGradient id="bpaint2_linear" x1="42.715" y1="30.696" x2="37.622" y2="47.884" gradientUnits="userSpaceOnUse"><stop stop-color="#EECE83"/><stop offset=".203" stop-color="#C8A237"/><stop offset=".406" stop-color="#FFDE87"/><stop offset=".594" stop-color="#E8C970"/><stop offset=".802" stop-color="#D7AE44"/><stop offset="1" stop-color="#A26A0D"/></linearGradient><clipPath id="bclip0"><path fill="#fff" d="M0 0h46v46H0z"/></clipPath></defs></svg><svg fill="none" viewBox="0 0 46 46" id="css--term-2" xmlns="http://www.w3.org/2000/svg"><path d="M24.82 29.43l-5.312-5.249.063-.062a36.631 36.631 0 007.757-13.654h6.127V6.273H18.818V2.09h-4.182v4.182H0v4.16h23.355a33.023 33.023 0 01-6.628 11.208 32.974 32.974 0 01-4.83-7.005H7.715a36.723 36.723 0 006.231 9.535L3.314 34.678l2.959 2.958 10.454-10.454 6.503 6.503 1.59-4.256z" fill="url(#cpaint0_linear)"/><path d="M36.591 18.818h-4.182L23 43.91h4.182l2.352-6.273h9.932l2.352 6.273H46l-9.409-25.09zm-5.489 14.637L34.5 24.39l3.398 9.065h-6.796z" fill="url(#cpaint1_linear)"/><defs><linearGradient id="cpaint0_linear" x1="31.065" y1="5.899" x2="3.431" y2="28.361" gradientUnits="userSpaceOnUse"><stop stop-color="#EECE83"/><stop offset=".203" stop-color="#C8A237"/><stop offset=".406" stop-color="#FFDE87"/><stop offset=".594" stop-color="#E8C970"/><stop offset=".802" stop-color="#D7AE44"/><stop offset="1" stop-color="#A26A0D"/></linearGradient><linearGradient id="cpaint1_linear" x1="44.357" y1="21.506" x2="24.962" y2="36.861" gradientUnits="userSpaceOnUse"><stop stop-color="#EECE83"/><stop offset=".203" stop-color="#C8A237"/><stop offset=".406" stop-color="#FFDE87"/><stop offset=".594" stop-color="#E8C970"/><stop offset=".802" stop-color="#D7AE44"/><stop offset="1" stop-color="#A26A0D"/></linearGradient></defs></svg><svg fill="none" viewBox="0 0 46 42" id="css--term-3" xmlns="http://www.w3.org/2000/svg"><path d="M41.548.55H4.452A4.457 4.457 0 000 5.002V27.26a4.457 4.457 0 004.452 4.452h13.355a1.484 1.484 0 100-2.968h-6.042a10.41 10.41 0 00-8.797-8.797v-7.632a10.41 10.41 0 008.796-8.797h22.471a10.41 10.41 0 008.797 8.797v7.632a10.41 10.41 0 00-8.797 8.797h-6.041a1.484 1.484 0 100 2.968h13.354A4.457 4.457 0 0046 27.26V5.002A4.457 4.457 0 0041.548.55zM8.754 28.744H4.452a1.486 1.486 0 01-1.484-1.484v-4.302a7.441 7.441 0 015.786 5.786zM2.968 9.304V5.002c0-.818.665-1.484 1.484-1.484h4.302a7.441 7.441 0 01-5.786 5.786zm34.278-5.786h4.302c.819 0 1.484.666 1.484 1.484v4.302a7.441 7.441 0 01-5.786-5.786zm4.302 25.226h-4.302a7.441 7.441 0 015.786-5.786v4.302c0 .818-.665 1.484-1.484 1.484zM31.161 16.13c0-4.5-3.66-8.161-8.161-8.161-4.5 0-8.161 3.66-8.161 8.16 0 4.501 3.66 8.162 8.161 8.162 4.5 0 8.161-3.66 8.161-8.161zm-13.355 0A5.2 5.2 0 0123 10.937a5.2 5.2 0 015.194 5.194A5.2 5.2 0 0123 21.325a5.2 5.2 0 01-5.194-5.194zm-6.677-1.484a1.484 1.484 0 110 2.968h-.742a1.484 1.484 0 110-2.968h.742zm23.742 2.968a1.484 1.484 0 110-2.968h.742a1.484 1.484 0 110 2.968h-.742zm-7.761 18.24c.58.58.58 1.52 0 2.1l-3.06 3.06c-.58.58-1.52.58-2.1 0l-3.06-3.06a1.484 1.484 0 112.099-2.1l.527.528V29.3a1.484 1.484 0 112.968 0v7.083l.527-.527c.58-.58 1.52-.58 2.099 0z" fill="url(#dpaint0_linear)"/><defs><linearGradient id="dpaint0_linear" x1="42.714" y1="4.932" x2="10.247" y2="36.469" gradientUnits="userSpaceOnUse"><stop stop-color="#EECE83"/><stop offset=".203" stop-color="#C8A237"/><stop offset=".406" stop-color="#FFDE87"/><stop offset=".594" stop-color="#E8C970"/><stop offset=".802" stop-color="#D7AE44"/><stop offset="1" stop-color="#A26A0D"/></linearGradient></defs></svg><svg fill="none" viewBox="0 0 46 46" id="sprite--term-1" xmlns="http://www.w3.org/2000/svg"><g clip-path="url(#eclip0)"><path d="M44.651 9.33H28.985a3.39 3.39 0 00-.72-1.061L25.79 5.793a3.387 3.387 0 00-2.411-1 3.39 3.39 0 00-2.411 1l-2.476 2.475a3.391 3.391 0 00-.72 1.063H1.35a1.35 1.35 0 000 2.698h16.424c.165.386.404.747.72 1.062l2.475 2.476c.644.644 1.5.998 2.411.998.91 0 1.767-.355 2.411-.998l2.476-2.476a3.39 3.39 0 00.72-1.062H44.65a1.349 1.349 0 100-2.698z" fill="url(#epaint0_linear)"/><path d="M44.651 21.831H18.337a3.406 3.406 0 00-.722-1.062l-2.475-2.476a3.387 3.387 0 00-2.412-.998c-.91 0-1.767.354-2.41.998L7.842 20.77a3.39 3.39 0 00-.72 1.062H1.35a1.35 1.35 0 000 2.698h5.773c.166.386.405.747.72 1.062l2.476 2.476c.643.644 1.5.999 2.41.999a3.39 3.39 0 002.412-.999l2.476-2.476c.31-.31.553-.67.721-1.062h26.314a1.35 1.35 0 000-2.698z" fill="url(#epaint1_linear)"/><path d="M44.651 33.972h-6.673a3.391 3.391 0 00-.719-1.062l-2.476-2.476a3.387 3.387 0 00-2.41-.999c-.912 0-1.768.355-2.412.999l-2.476 2.476a3.388 3.388 0 00-.72 1.062H1.35a1.349 1.349 0 000 2.697h25.417c.166.386.405.748.72 1.063l2.475 2.476c.644.644 1.5.998 2.411.998s1.767-.355 2.411-.998l2.476-2.476c.315-.315.554-.677.72-1.063h6.672a1.349 1.349 0 100-2.697z" fill="url(#epaint2_linear)"/></g><defs><linearGradient id="epaint0_linear" x1="42.714" y1="6.055" x2="37.622" y2="23.243" gradientUnits="userSpaceOnUse"><stop stop-color="#EECE83"/><stop offset=".203" stop-color="#C8A237"/><stop offset=".406" stop-color="#FFDE87"/><stop offset=".594" stop-color="#E8C970"/><stop offset=".802" stop-color="#D7AE44"/><stop offset="1" stop-color="#A26A0D"/></linearGradient><linearGradient id="epaint1_linear" x1="42.714" y1="18.556" x2="37.622" y2="35.743" gradientUnits="userSpaceOnUse"><stop stop-color="#EECE83"/><stop offset=".203" stop-color="#C8A237"/><stop offset=".406" stop-color="#FFDE87"/><stop offset=".594" stop-color="#E8C970"/><stop offset=".802" stop-color="#D7AE44"/><stop offset="1" stop-color="#A26A0D"/></linearGradient><linearGradient id="epaint2_linear" x1="42.715" y1="30.696" x2="37.622" y2="47.884" gradientUnits="userSpaceOnUse"><stop stop-color="#EECE83"/><stop offset=".203" stop-color="#C8A237"/><stop offset=".406" stop-color="#FFDE87"/><stop offset=".594" stop-color="#E8C970"/><stop offset=".802" stop-color="#D7AE44"/><stop offset="1" stop-color="#A26A0D"/></linearGradient><clipPath id="eclip0"><path fill="#fff" d="M0 0h46v46H0z"/></clipPath></defs></svg><svg fill="none" viewBox="0 0 46 46" id="sprite--term-2" xmlns="http://www.w3.org/2000/svg"><path d="M24.82 29.43l-5.312-5.249.063-.062a36.631 36.631 0 007.757-13.654h6.127V6.273H18.818V2.09h-4.182v4.182H0v4.16h23.355a33.023 33.023 0 01-6.628 11.208 32.974 32.974 0 01-4.83-7.005H7.715a36.723 36.723 0 006.231 9.535L3.314 34.678l2.959 2.958 10.454-10.454 6.503 6.503 1.59-4.256z" fill="url(#fpaint0_linear)"/><path d="M36.591 18.818h-4.182L23 43.91h4.182l2.352-6.273h9.932l2.352 6.273H46l-9.409-25.09zm-5.489 14.637L34.5 24.39l3.398 9.065h-6.796z" fill="url(#fpaint1_linear)"/><defs><linearGradient id="fpaint0_linear" x1="31.065" y1="5.899" x2="3.431" y2="28.361" gradientUnits="userSpaceOnUse"><stop stop-color="#EECE83"/><stop offset=".203" stop-color="#C8A237"/><stop offset=".406" stop-color="#FFDE87"/><stop offset=".594" stop-color="#E8C970"/><stop offset=".802" stop-color="#D7AE44"/><stop offset="1" stop-color="#A26A0D"/></linearGradient><linearGradient id="fpaint1_linear" x1="44.357" y1="21.506" x2="24.962" y2="36.861" gradientUnits="userSpaceOnUse"><stop stop-color="#EECE83"/><stop offset=".203" stop-color="#C8A237"/><stop offset=".406" stop-color="#FFDE87"/><stop offset=".594" stop-color="#E8C970"/><stop offset=".802" stop-color="#D7AE44"/><stop offset="1" stop-color="#A26A0D"/></linearGradient></defs></svg><svg fill="none" viewBox="0 0 46 42" id="sprite--term-3" xmlns="http://www.w3.org/2000/svg"><path d="M41.548.55H4.452A4.457 4.457 0 000 5.002V27.26a4.457 4.457 0 004.452 4.452h13.355a1.484 1.484 0 100-2.968h-6.042a10.41 10.41 0 00-8.797-8.797v-7.632a10.41 10.41 0 008.796-8.797h22.471a10.41 10.41 0 008.797 8.797v7.632a10.41 10.41 0 00-8.797 8.797h-6.041a1.484 1.484 0 100 2.968h13.354A4.457 4.457 0 0046 27.26V5.002A4.457 4.457 0 0041.548.55zM8.754 28.744H4.452a1.486 1.486 0 01-1.484-1.484v-4.302a7.441 7.441 0 015.786 5.786zM2.968 9.304V5.002c0-.818.665-1.484 1.484-1.484h4.302a7.441 7.441 0 01-5.786 5.786zm34.278-5.786h4.302c.819 0 1.484.666 1.484 1.484v4.302a7.441 7.441 0 01-5.786-5.786zm4.302 25.226h-4.302a7.441 7.441 0 015.786-5.786v4.302c0 .818-.665 1.484-1.484 1.484zM31.161 16.13c0-4.5-3.66-8.161-8.161-8.161-4.5 0-8.161 3.66-8.161 8.16 0 4.501 3.66 8.162 8.161 8.162 4.5 0 8.161-3.66 8.161-8.161zm-13.355 0A5.2 5.2 0 0123 10.937a5.2 5.2 0 015.194 5.194A5.2 5.2 0 0123 21.325a5.2 5.2 0 01-5.194-5.194zm-6.677-1.484a1.484 1.484 0 110 2.968h-.742a1.484 1.484 0 110-2.968h.742zm23.742 2.968a1.484 1.484 0 110-2.968h.742a1.484 1.484 0 110 2.968h-.742zm-7.761 18.24c.58.58.58 1.52 0 2.1l-3.06 3.06c-.58.58-1.52.58-2.1 0l-3.06-3.06a1.484 1.484 0 112.099-2.1l.527.528V29.3a1.484 1.484 0 112.968 0v7.083l.527-.527c.58-.58 1.52-.58 2.099 0z" fill="url(#gpaint0_linear)"/><defs><linearGradient id="gpaint0_linear" x1="42.714" y1="4.932" x2="10.247" y2="36.469" gradientUnits="userSpaceOnUse"><stop stop-color="#EECE83"/><stop offset=".203" stop-color="#C8A237"/><stop offset=".406" stop-color="#FFDE87"/><stop offset=".594" stop-color="#E8C970"/><stop offset=".802" stop-color="#D7AE44"/><stop offset="1" stop-color="#A26A0D"/></linearGradient></defs></svg></svg>