<svg xmlns="http://www.w3.org/2000/svg" width="376.759" height="376.759" viewBox="0 0 12327 12327" shape-rendering="geometricPrecision" text-rendering="geometricPrecision" image-rendering="optimizeQuality" fill-rule="evenodd" clip-rule="evenodd"><path class="fil0" d="M6163 4095L3188 6548c0 3 0 9-2 15-2 8-3 13-3 16v2483c0 89 32 167 99 233 66 65 142 99 233 99h1987V7407h1324v1987h1987c89 0 167-34 233-99 65-66 97-144 97-233V6579c0-14-1-24-5-31L6163 4095z"/><path class="fil0" d="M10275 5990l-1132-943V2937c0-49-15-88-47-119-31-31-71-47-119-47h-993c-48 0-88 16-119 47s-47 70-47 119v1009L6556 2890c-110-89-241-135-393-135s-283 46-394 135L2050 5990c-35 27-54 64-57 110-4 47 9 87 36 122l320 382c29 32 65 51 109 58 42 3 83-8 125-37l3580-2985 3581 2985c27 25 63 37 107 37h16c45-7 81-26 109-58l320-382c29-35 41-75 38-122-4-46-24-83-59-110z"/><path class="fil1 str0" d="M12196 6163c0-3332-2701-6032-6033-6032S131 2831 131 6163s2700 6033 6032 6033 6033-2701 6033-6033z"/></svg>