<svg class="portfolio-menu__link-img-svg" viewBox="0 0 929.548 929.549"><path d="M152.964 922.853l295.743-326.307-107.141-107.142L15.631 784.812a14.63 14.63 0 00-.729.702c-9.743 10.2-8.09 27.901 3.815 39.807l94.074 94.074c12.049 12.047 30.035 13.596 40.173 3.458zm542.852-598.954c.213-.235.434-.466.661-.687 25.993-25.257 66.197-22.911 95.568-42.533 23.192-15.495 36.99-49.801 51.188-73.14 23.103-37.974 46.204-75.949 69.306-113.923a13.421 13.421 0 00-1.979-16.469l-49.597-49.596a13.428 13.428 0 00-16.473-1.977L726.151 97.566c-24.813 15.096-53.909 27.766-70.994 52.38-19.591 28.225-15.142 66.147-40.578 92.014L495.626 349.773l92.711 92.711 107.479-118.585z"/><path d="M571.529 461.031l-94.448-94.448-103.079-103.078a195.143 195.143 0 008.117-27.239c13.772-62.643-3.595-130.885-52.108-179.399-58.784-58.783-145.879-71.992-217.39-39.635-11.882 5.376-14.718 20.981-5.497 30.203l120.251 120.251c14.625 14.625 14.625 38.338 0 52.963L107 341.024c-9.161 9.161-6.339 24.654 5.461 30.006 38.818 17.607 82.239 21.772 123.238 12.507a193.913 193.913 0 0027.106-8.25l97.308 97.309 105.404 105.403L804.75 917.233a24.903 24.903 0 0017.662 7.316 24.895 24.895 0 0017.662-7.316l76.166-76.166c9.755-9.755 9.755-25.57 0-35.324L571.529 461.031zM817.547 852.08c-17.674 0-32-14.327-32-32s14.326-32 32-32c17.673 0 32 14.327 32 32s-14.327 32-32 32z"/><path d="M80.608 309.248l79.586-79.586c8.255-8.256 8.255-21.641 0-29.896L48.199 87.771c-5.945-5.945-15.953-4.381-19.817 3.085C-7.281 159.771-.342 245.019 49.206 307.573c7.801 9.849 22.517 10.558 31.402 1.675z"/></svg>