<svg class="portfolio-menu__link-img-svg" viewBox="0.5 24.5 24 24"><circle cx="11.563" cy="36.5" r="3"/><path d="M21.934 38.57a1.001 1.001 0 00-1.3.559l-1.516 3.788-2.956-2.217a.997.997 0 00-.6-.2h-8a1 1 0 00-.6.2l-2.956 2.217-1.515-3.788a1 1 0 10-1.857.742l2 5a1.001 1.001 0 001.529.429l3.4-2.55v5.75h8v-5.75l3.4 2.55a1 1 0 001.53-.429l2-5a1.006 1.006 0 00-.559-1.301zM12.5 30.5a3 3 0 100-6 3 3 0 000 6zm0-5c1.103 0 2 .897 2 2s-.897 2-2 2-2-.897-2-2 .897-2 2-2zm8 2l-4 7h8l-4-7zm0 2.016l2.276 3.984h-4.553l2.277-3.984zM8.5 32.5l-4-4-4 4 4 4 4-4zm-4-2.586L7.086 32.5 4.5 35.086 1.914 32.5 4.5 29.914z"/></svg>