<svg height="300" width="300" xmlns="http://www.w3.org/2000/svg" data-name="Icon Set" viewBox="0 0 24 24"><path d="M21.27 17.73L15.46 12l4.25-4.3a1 1 0 00.18-.26l2-4a1 1 0 00-1.34-1.34l-4 2a1 1 0 00-.26.18L12 8.56l-.78-.77a1 1 0 00-.7-.29h-.06C9.91 3.25 5.81 4.81 3 2c0 2.79 0 7.8 4.51 8.43a1 1 0 00.28.77l.76.77-5.81 5.76a2.5 2.5 0 103.53 3.54l5.73-5.8 5.72 5.79a2.5 2.5 0 103.54-3.53zM4.05 4a13.84 13.84 0 002.41.91c1.85.57 2.92.9 3 3.19L8.1 9.49C5 9.3 4.24 6.87 4.05 4zm4.45 6.5l2-2 .78.77-2 2zM5.56 20.56a1.5 1.5 0 01-2.12-2.12l1.65-1.64 2.11 2.11zM7.9 18.2l-2.1-2.1L17 5l4-2-2 4zm12.66 2.36a1.5 1.5 0 01-2.12 0l-5.73-5.8 2-2.06 5.81 5.74a1.5 1.5 0 01.04 2.12z"/></svg>